<svg width="527" height="387" viewBox="0 0 527 387" fill="none" xmlns="http://www.w3.org/2000/svg">
<path fill-rule="evenodd" clip-rule="evenodd" d="M67.4511 127.985L82.2673 164.581L153.589 346.879L206.314 346.869C208.354 341.697 221.807 318.813 225.413 312.047C226.848 309.354 231.198 302.898 231.684 300.598C233.42 299.064 234.813 296.18 236.395 293.632C237.838 291.306 239.14 289.113 240.674 286.507C246.174 277.158 252.234 268.335 257.96 259.285C259.641 256.631 260.902 254.867 262.519 252.479C264.017 250.262 265.246 248.231 266.885 246.005C268.703 243.533 269.941 241.552 271.48 239.231C277.662 229.907 292.578 209.659 299.792 200.656C300.394 199.906 304.041 195.13 304.371 194.49C306.295 192.658 307.624 189.992 310.109 187.282C312.027 185.191 313.733 182.602 315.488 180.258L321.164 173.615C323.114 171.14 324.719 169.223 326.658 166.755C330.278 162.151 334.121 157.754 338.009 153.429C339.513 151.756 348.453 141.813 349.371 139.875C350.771 139.367 351.368 138.416 352.893 136.726C354.169 135.313 354.995 133.981 356.293 132.641C357.517 131.379 358.659 130.476 359.798 129.195L399.05 89.0319C415.329 73.3476 442.774 48.5839 460.962 35.5032C462.379 34.484 468.09 29.6799 469.146 29.5823C462.102 29.9351 417.751 58.6622 409.123 64.3131C399.683 70.4954 390.316 77.8252 381.568 84.6402C372.382 91.7963 363.58 99.2789 354.941 106.445L354.96 0.0206604L272.828 -0.000152588C270.755 4.04919 253.367 47.5886 253.199 49.6866C251.661 51.1526 242.948 73.8783 241.283 78.1676C239.469 82.8453 230.274 104.382 230.118 107.27C228.3 108.818 203.357 172.38 200.312 180.195C198.699 184.335 196.934 188.449 195.418 192.427C193.933 196.323 191.48 201.159 190.535 205.229C189.653 206.187 185.219 218.174 184.227 220.446L177.913 235.255C177.875 235.157 177.741 235.492 177.648 235.605C176.796 232.356 175.185 229.268 173.9 226.036C171.011 218.772 150.284 165.288 148.017 162.935C147.88 160.226 136.007 132.238 134.038 127.325C133.098 124.983 121.389 94.3288 119.566 92.332C119.526 89.5437 103.785 52.4136 101.379 46.2338C98.8925 39.8465 83.2869 3.19374 83.1118 0.0206604L0.00467746 0.00839233L0 386.063L0.658483 386.042L66.8191 386.037L66.8794 126.508L67.4511 127.985ZM287.771 126.856C288.77 128.042 288.125 125.513 288.581 129.128L288.509 171.547C287.987 173.176 275.786 184.751 274.382 187.808C271.409 190.578 268.213 194.662 265.437 197.842C263.028 200.602 258.747 206.36 256.26 208.165L284.587 135.939C285.551 134.003 287.759 128.861 287.771 126.856Z" fill="white"/>
<path fill-rule="evenodd" clip-rule="evenodd" d="M320.394 281.326C324.021 275.137 327.16 268.546 330.504 262.435L351.209 226.508C353.166 223.332 354.739 220.592 356.532 217.684C358.142 215.069 360.854 211.435 361.832 208.717C360.617 207.489 340.133 189.592 338.103 188.552C336.435 189.997 332.781 195.139 331.346 197.257L318.136 215.351C313.546 221.63 290.35 256.212 287.352 262.731C288.805 264.237 318.198 280.999 320.394 281.326ZM525.667 1.76709C513.855 10.0069 501.874 19.7931 490.926 29.043C486.204 33.0316 459.128 55.6873 457.47 58.8739C459.527 60.9038 464.894 65.8926 467.077 66.9033L477.629 54.6055C480.662 51.1808 508.78 18.9285 511.417 18.0062C512.301 16.1954 517.564 10.6175 519.219 9.06255C521.747 6.68965 524.452 3.53437 526.818 0.951599L525.667 1.76709ZM275.316 385.962C278.092 375.83 288.836 349.053 293.13 339.14L313.196 295.018C307.208 292.957 287.694 280.125 279.188 276.225C274.115 284.366 269.584 293.391 264.815 302.219C257.972 314.891 230.549 372.442 227.843 386.023L275.316 385.962ZM369.092 197.571C370.831 195.803 373.301 191.331 374.935 188.885C385.642 172.855 399.178 152.821 410.724 137.641C412.94 134.727 414.418 132.252 416.777 129.843C415.773 127.778 410.569 123.885 408.473 122.146C405.951 120.053 402.355 116.298 399.931 115.217C398.587 116.91 397.642 117.568 396.363 118.954C382.996 133.44 364.559 154.8 352.465 169.915C350.077 172.902 346.76 176.377 346.222 178.783C349.485 180.463 364.796 195.177 369.092 197.571ZM407.719 107.846C409.809 108.912 413.48 112.416 415.641 114.266C417.682 116.014 421.249 119.958 423.838 120.6C425.172 118.409 426.21 116.936 428.157 114.661C430.287 112.172 431.054 110.77 432.799 108.521L442.172 96.9465C445.339 93.4746 448.434 89.1265 451.473 85.2821C454.424 81.5512 459.595 77.4356 461.201 73.1445C458.333 71.1404 453.469 66.0908 450.748 64.7776L439.764 74.9289C436.019 78.3554 409.322 103.791 407.719 107.846Z" fill="#F58634"/>
</svg>
